<?xml version="1.0" encoding="UTF-8" standalone="no" ?>
<svg
    fill="currentColor"
    width="800px"
    height="800px"
    viewBox="-1 0 19 19"
    class="cf-icon-svg"
    version="1.1"
    id="svg1"
    sodipodi:docname="cog.svg"
    inkscape:version="1.4.4 (dcaf3e7d9e, 2026-05-05)"
    xmlns:inkscape="http://www.inkscape.org/namespaces/inkscape"
    xmlns:sodipodi="http://sodipodi.sourceforge.net/DTD/sodipodi-0.dtd"
    xmlns="http://www.w3.org/2000/svg"
    xmlns:svg="http://www.w3.org/2000/svg"
>
  <defs id="defs1" />
  <sodipodi:namedview
        id="namedview1"
        pagecolor="#505050"
        bordercolor="#ffffff"
        borderopacity="1"
        inkscape:showpageshadow="0"
        inkscape:pageopacity="0"
        inkscape:pagecheckerboard="1"
        inkscape:deskcolor="#505050"
        inkscape:zoom="0.728125"
        inkscape:cx="350.21459"
        inkscape:cy="390.72961"
        inkscape:window-width="2504"
        inkscape:window-height="1374"
        inkscape:window-x="0"
        inkscape:window-y="0"
        inkscape:window-maximized="1"
        inkscape:current-layer="svg1"
    />
  <path
        d="m 17.905826,8.5987217 v 1.8025573 a 0.73479256,0.73479256 0 0 1 -0.585831,0.695987 l -1.4796,0.255363 a 0.57957232,0.57957232 0 0 1 -0.142702,0.0075 7.3879824,7.3879824 0 0 1 -0.793626,1.912714 0.56955811,0.56955811 0 0 1 0.09764,0.105149 l 0.864978,1.22674 a 0.73354078,0.73354078 0 0 1 -0.07761,0.907538 l -1.276812,1.276812 a 0.73354078,0.73354078 0 0 1 -0.906286,0.07636 l -1.226741,-0.863726 a 0.55578858,0.55578858 0 0 1 -0.106401,-0.09764 7.3954931,7.3954931 0 0 1 -1.932742,0.797381 0.62839159,0.62839159 0 0 1 0,0.219061 l -0.227823,1.31812 A 0.83493464,0.83493464 0 0 1 9.3198932,18.904593 H 7.6800665 A 0.83493464,0.83493464 0 0 1 6.8876922,18.238648 L 6.659869,16.920528 a 0.61962916,0.61962916 0 0 1 0,-0.219061 7.3954931,7.3954931 0 0 1 -1.9327423,-0.797381 0.55578858,0.55578858 0 0 1 -0.1064009,0.09639 L 3.3939852,16.86545 A 0.73354078,0.73354078 0 0 1 2.4864476,16.78784 L 1.209636,15.511028 A 0.73354078,0.73354078 0 0 1 1.133278,14.605994 l 0.8649772,-1.22674 a 0.56830634,0.56830634 0 0 1 0.096387,-0.106401 7.3867306,7.3867306 0 0 1 -0.7923742,-1.912714 0.58332765,0.58332765 0 0 1 -0.1427024,-0.0075 l -1.47959933,-0.255363 a 0.73354078,0.73354078 0 0 1 -0.5858312,-0.695987 V 8.5987217 a 0.73354078,0.73354078 0 0 1 0.5858312,-0.6959875 L 1.159565,7.6473719 A 0.54702615,0.54702615 0 0 1 1.3022674,7.641113 7.4005002,7.4005002 0 0 1 2.0946416,5.7283992 0.58332765,0.58332765 0 0 1 1.9982549,5.6219982 L 1.1332777,4.3952576 A 0.73479256,0.73479256 0 0 1 1.209636,3.4889718 L 2.4864476,2.2121602 a 0.73479256,0.73479256 0 0 1 0.9075376,-0.07761 l 1.2267406,0.8649771 a 0.55578858,0.55578858 0 0 1 0.1064009,0.097638 7.3892342,7.3892342 0 0 1 1.9127139,-0.793626 0.54201904,0.54201904 0 0 1 0.00626,-0.1427025 L 6.9014618,0.68123793 a 0.73354078,0.73354078 0 0 1 0.6959875,-0.5858312 h 1.8050611 a 0.73354078,0.73354078 0 0 1 0.6959876,0.5858312 L 10.35386,2.1608373 a 0.56079568,0.56079568 0 0 1 0.0063,0.1427025 7.3954931,7.3954931 0 0 1 1.912714,0.793626 0.55578858,0.55578858 0 0 1 0.106401,-0.097638 l 1.226741,-0.8649773 a 0.73354078,0.73354078 0 0 1 0.906286,0.07761 l 1.276812,1.2768116 a 0.73354078,0.73354078 0 0 1 0.07761,0.9062858 l -0.864978,1.2267406 a 0.58457943,0.58457943 0 0 1 -0.09764,0.106401 7.3879824,7.3879824 0 0 1 0.793626,1.9127138 0.54327082,0.54327082 0 0 1 0.142702,0.00626 l 1.4796,0.2553623 a 0.73479256,0.73479256 0 0 1 0.585831,0.6959875 z M 11.703275,9.5000005 A 3.203295,3.203295 0 1 0 8.498728,12.704546 3.203295,3.203295 0 0 0 11.703275,9.5000005 Z"
        id="path1"
        style="stroke-width:1.25178"
    />
</svg>
